<?xml version="1.0" encoding="UTF-8" standalone="no"?>
<!DOCTYPE svg PUBLIC "-//W3C//DTD SVG 1.1//EN" "http://www.w3.org/Graphics/SVG/1.1/DTD/svg11.dtd">
<svg width="100%" height="100%" viewBox="0 0 897 897" version="1.1" xmlns="http://www.w3.org/2000/svg" xmlns:xlink="http://www.w3.org/1999/xlink" xml:space="preserve" xmlns:serif="http://www.serif.com/" style="fill-rule:evenodd;clip-rule:evenodd;stroke-linecap:round;stroke-linejoin:round;stroke-miterlimit:1.5;">
<g>
<path d="M0,862.59l431.2,-862.59l33.9,32.686l-8.78,17.565l406.079,812.339l-155.411,-0l16.726,32.686l-47.769,-32.686l-91.169,-174.165l-249.57,-0l-16.23,32.685l-33.901,-32.685l86.24,-172.518l123.154,-0l-76.055,-145.294l-245.934,491.977l-122.24,-0l-16.339,32.686l-33.901,-32.686Z" style="fill:none;stroke:#000;stroke-width:2.34px;"/>
<path d="M550.517,548.592l-85.417,-170.87l-258.719,517.554l-172.48,-0l431.199,-862.59l431.2,862.59l-172.48,-0l-87.063,-174.166l-317.781,0l86.24,-172.518l145.301,0Z" style="fill:none;stroke:#000;stroke-width:2.34px;"/><path d="M706.988,862.59l-31.043,-0" style="fill:none;stroke:#000;stroke-width:2.34px;"/><path d="M896.3,895.276l-33.901,-32.686l-406.81,-812.641l-24.389,-49.949" style="fill:none;stroke:#000;stroke-width:2.34px;"/>
<path d="M465.1,378.243l-46.493,-7.706" style="fill:none;stroke:#000;stroke-width:2.34px;"/><path d="M584.776,688.425l51.981,32.685" style="fill:none;stroke:#000;stroke-width:2.34px;"/><path d="M335.206,688.425l-50.131,-0" style="fill:none;stroke:#000;stroke-width:2.34px;"/>
<path d="M371.315,515.907l33.901,32.685" style="fill:none;stroke:#000;stroke-width:2.34px;"/><path d="M494.469,515.907l56.048,32.685" style="fill:none;stroke:#000;stroke-width:2.34px;"/><path d="M172.48,862.59l33.901,32.686" style="fill:none;stroke:#000;stroke-width:2.34px;"/></g></svg>